/* XPM */
static char *Pixmap[] = {
"64 64 256 3",
"000 c #180000",
"001 c #290011",
"002 c #2D1B00",
"003 c #361A1D",
"004 c #3C2000",
"005 c #4E3C00",
"006 c #564905",
"007 c #5A520C",
"008 c #5E5611",
"009 c #685A08",
"010 c #635B12",
"011 c #645729",
"012 c #6C6206",
"013 c #6C6212",
"014 c #766708",
"015 c #756B15",
"016 c #7E7600",
"017 c #7B7217",
"018 c #736A25",
"019 c #73693A",
"020 c #7C7820",
"021 c #7F7833",
"022 c #594840",
"023 c #776A5F",
"024 c #7D7558",
"025 c #806F0C",
"026 c #827608",
"027 c #857917",
"028 c #837C23",
"029 c #827930",
"030 c #897E42",
"031 c #827A6A",
"032 c #8B821C",
"033 c #938E00",
"034 c #93891C",
"035 c #999200",
"036 c #9B931D",
"037 c #8B8423",
"038 c #8E8830",
"039 c #938B24",
"040 c #938B37",
"041 c #9B9428",
"042 c #9B9635",
"043 c #A09812",
"044 c #A4991E",
"045 c #A19522",
"046 c #A49A25",
"047 c #A39D2C",
"048 c #A99D25",
"049 c #A89D29",
"050 c #A49E32",
"051 c #A9A300",
"052 c #ADA800",
"053 c #A9A213",
"054 c #B3AE01",
"055 c #B5B000",
"056 c #B5B113",
"057 c #A6A12D",
"058 c #ABA225",
"059 c #ACA32A",
"060 c #AFA92D",
"061 c #A6A232",
"062 c #AAA432",
"063 c #ACA538",
"064 c #ADA934",
"065 c #B1A62C",
"066 c #B3AA2D",
"067 c #BEAC26",
"068 c #B8AE2D",
"069 c #B2AC32",
"070 c #B2AB3B",
"071 c #B8AE31",
"072 c #BBB22D",
"073 c #B7B033",
"074 c #B6B239",
"075 c #BBB333",
"076 c #BAB53A",
"077 c #BEB836",
"078 c #BDB93B",
"079 c #968F4F",
"080 c #979157",
"081 c #9C9555",
"082 c #8D8265",
"083 c #988A67",
"084 c #9C9666",
"085 c #9B9473",
"086 c #B09E5F",
"087 c #A08E6C",
"088 c #A69B64",
"089 c #A4947A",
"090 c #AEA146",
"091 c #ABA24C",
"092 c #A9A45D",
"093 c #B5AC42",
"094 c #B3AA4F",
"095 c #BAA85A",
"096 c #BDB343",
"097 c #BEB845",
"098 c #BFB948",
"099 c #BCB65B",
"100 c #BEB85F",
"101 c #ACA46C",
"102 c #B6A465",
"103 c #B3A477",
"104 c #B8B262",
"105 c #C2BE21",
"106 c #C8B52A",
"107 c #C8B92F",
"108 c #C0B730",
"109 c #C2BA35",
"110 c #C2BC3A",
"111 c #D1BE30",
"112 c #C2AE54",
"113 c #C5BB49",
"114 c #C7B754",
"115 c #D5BC5C",
"116 c #C0A867",
"117 c #CFB463",
"118 c #C7C21E",
"119 c #CAC51E",
"120 c #C4C022",
"121 c #C8C423",
"122 c #CAC62C",
"123 c #C4C136",
"124 c #C6C03C",
"125 c #CDC135",
"126 c #C9C33C",
"127 c #CDC932",
"128 c #CEC83F",
"129 c #D4C634",
"130 c #D1C538",
"131 c #D1CB32",
"132 c #D3CA3D",
"133 c #DCCA32",
"134 c #D9CD3B",
"135 c #D2D031",
"136 c #DCD13D",
"137 c #DDDA37",
"138 c #DDDA3B",
"139 c #E0D23B",
"140 c #E0DD3A",
"141 c #C5C141",
"142 c #C9C541",
"143 c #CDC943",
"144 c #CEC055",
"145 c #C8C25B",
"146 c #D0C44E",
"147 c #D1CD43",
"148 c #D0CE48",
"149 c #D8C755",
"150 c #D5D145",
"151 c #D4D149",
"152 c #DAD545",
"153 c #D8D549",
"154 c #DCD945",
"155 c #DCDA4B",
"156 c #DFDC50",
"157 c #DAC565",
"158 c #D9CA78",
"159 c #E1D642",
"160 c #E1DA44",
"161 c #E1DD4B",
"162 c #E8DC43",
"163 c #E1DA53",
"164 c #E4CB69",
"165 c #E1C878",
"166 c #E5D367",
"167 c #E5E344",
"168 c #E4E24D",
"169 c #E9E345",
"170 c #E9E44B",
"171 c #ECEA4C",
"172 c #E5E351",
"173 c #E8E651",
"174 c #ECEA53",
"175 c #EEED58",
"176 c #F1EF4D",
"177 c #F0EE54",
"178 c #F0EE58",
"179 c #F2F14E",
"180 c #F3F254",
"181 c #F5F45A",
"182 c #F8F654",
"183 c #F8F65A",
"184 c #FBFA56",
"185 c #FEFE5D",
"186 c #FEFE63",
"187 c #FFFF68",
"188 c #988F80",
"189 c #9E9A94",
"190 c #AEAA86",
"191 c #ABA293",
"192 c #B6A887",
"193 c #B6AC9B",
"194 c #B6B084",
"195 c #B6B094",
"196 c #BFB495",
"197 c #BDBA9E",
"198 c #B5AEA4",
"199 c #BBB4A8",
"200 c #BBB7B4",
"201 c #C0B489",
"202 c #C5BD8D",
"203 c #C2B8A5",
"204 c #C3BDB5",
"205 c #C7C186",
"206 c #C9C58A",
"207 c #C7C29F",
"208 c #CECA99",
"209 c #D4C988",
"210 c #DECD9D",
"211 c #D6D183",
"212 c #CEC6A3",
"213 c #CBC1AE",
"214 c #CECAA2",
"215 c #CCC9AC",
"216 c #CCC4B5",
"217 c #D0CDAC",
"218 c #D0C9BC",
"219 c #DAD5A0",
"220 c #D4D0BA",
"221 c #DAD7B2",
"222 c #DCD9BA",
"223 c #E8D687",
"224 c #E3DEBC",
"225 c #E8DBB7",
"226 c #E7E5BA",
"227 c #E9E3B9",
"228 c #CCC8C1",
"229 c #D7D4C1",
"230 c #D4D1CD",
"231 c #DAD6CD",
"232 c #DED9C3",
"233 c #DED8CE",
"234 c #DBD7D2",
"235 c #E1DCC2",
"236 c #E1DDCE",
"237 c #E2DED6",
"238 c #E2E0C3",
"239 c #ECE8CD",
"240 c #E5E4D5",
"241 c #E4E2DE",
"242 c #E9E5DC",
"243 c #ECEADD",
"244 c #F6F5DF",
"245 c #EBE9E5",
"246 c #F0EEE9",
"247 c #F3F2E3",
"248 c #F4F2EA",
"249 c #F8F7E1",
"250 c #F8F4E9",
"251 c #F5F4F3",
"252 c #F9F7F5",
"253 c #FAFAF4",
"254 c #FEFEFE",
"255 c black",
"254254254254254254254254254254254254254254254254254254254254254254254254254254254254254254254254254254254254254254254254254254254254254254254254254254254254254254254254254254254254254254254254",
"254254254254254254254254254254254254254254254254254254254254254254254254254254254254254254254254254254254254254254254254254254254254254254254254254254254254254254254254254254254254254254254254",
"254254254254254254254254254254254254254254254254254254254254254254254254254254254253244226211145096096145211226249254254254254254254254254254254254254254254254254254254254254254254254254254254",
"254254254254254254254254254254254254254254254254254254254254254254254254247222205099097141143151151153151143141098100206224248254254254254254254254254254254254254254254254254254254254254254254",
"254254254254254254254254254254254254254254254254254254254254254243205064118140179184185185185185185186185186185185185177138120093208247254254254254254254254254254254254254254254254254254254254",
"254254254254254254254254254254254254254254254254254254253217063119171185185185185185183185185185185173185185186185185186185186185170105094238254254254254254254254254254254254254254254254254254",
"254254254254254254254254254254254254254254254254253207053137184185185185185185183174109172173124147060128177161178173174186185185186186183131063235254254254254254254254254254254254254254254254",
"254254254254254254254254254254254254254254254220043137185185185177180177161168065109066077077124124066069123066068124128142175185186185185186185122091247254254254254254254254254254254254254254",
"254254254254254254254254254254254254254248081121184185185177184147077075069066109124046060110071075128126059048049068060066110185172183186186185186180052214254254254254254254254254254254254254",
"254254254254254254254254254254254254229035171185185185182049066075075068071110147152177180174168168173174173161168152147077155183068077155183186186186186127092253254254254254254254254254254254",
"254254254254254254254254254254254195055184185185184177185126073065124168168173150078064069074074076076064064062074143173180186173058068072124150185186185186168039250254254254254254254254254254",
"254254254254254254254254254254085121185185171177075046155184073154180148069074150174181182183186185183186185185174151070047141177177110077060058161186186185186177033247254254254254254254254254",
"254254254254254254254254254083135185185184077073069128076185182141064153183185185185077039027041041032075050062174186185183151047076183172059075183168064183186186177033248254254254254254254254",
"254254254254254254254254085127185185185185184060071153185147062156184182078062034062041027013009015015025009014027039078181174185153041143181185174065069153186185186174039253254254254254254254",
"254254254254254254254191120185185185184185185182168180069143185185110028057009006061180153177178181177172151076041013039050009110186185076062185151058073071156186186186160088254254254254254254",
"254254254254254254228051185185185126060168150185173062174185142045014017147161156177185185186185186185186185186185181177041006034070181186155041174172153066143174186186186105215254254254254254",
"254254254254254246016184185170168045126073182155069185185062025025063173185186185185186185185186185186185186185186186186185148017026039156186174039181153049073110178186186185035247254254254254",
"254254254254254024167185185154065075075185161074185180059014027153185185185185186185185185186185185185186183155141073037172186181062025034062185174041177150077066068185186187168084254254254254",
"254254254254228054185185180068059075174174074184161032027049177185185185185185185185186185185185186185143037070076017061181186186186142015025147187161050184073066124073172186186052240254254254",
"254254254252015182184185154066073142184069184124027025141184185185185185185185183174173181186186174061039183173020151186186185186186186143025012153187142141183075069076183186186177080254254254",
"254254254200120185185170075071077181124172185147027057185185185185185185142032006013047049110143028125171172015156186186186186186186186186151141175186186061174147150186186186186186051243254254",
"254254254018179185185109075069168174141185185185180184185185185185185185143153153041028062125044132162147015156186186186185186186186186186186186186186186173064185175186186187186187161190254254",
"254254230054185185185182110126183078183185185185185185185185185185185185186185186185173074037039129134020172186186186186186186186186186186186186186186186186070174174059077110153186185034253254",
"254254031169185185170152182185172148185185185185185185185185185185185185185185186185186185185064039037148186186186185186186186186186186186186186186187186187168076186155048049153187186056240254",
"254251016184185180048065068185141181185185185185185185185185185185185185186185185185185186183155002143186186186186186186186186186186186186186187186186187186186062185148059150172183187152197254",
"254230054185185182058066142181142185185185185185185185185185185185185186185185185186185185047015015110074186186185186186186186186186186187186186187186186186187078173150059065045143187177084254",
"254189138185185128058060180156156185185185185185185185185185185185185185185185186185186185028069041005064186186186186186186186186186186186187186186186187186187155148155073073124076186185040247",
"253024176185184049077147185143180185185185185185185185185185185185185186185186185186185186173028008151186186185186186186186186186186187186186187186187186187187175076181110168172174187186050221",
"241021184185160068059109185141185185185185185185185185185185185185185185185185185185185186186150015183186186186186186186186186186186186187186186187186187186187183074185077126069077186186070104",
"199038184184068059059128185141185185185185185185185185185185185185185186185185186185186185186142027183186186186186186186186186186187186186187186187186187186187185064181059110073048178187078038",
"023057185184128128142168183143185185185185185185185185185185185185185185185186185186185186186124017183186186186186186186186186186186186187186187186187186187187186064185142062147147186187078032",
"003069185184185182171185181143185185185185185185185185185185185185186185186185186185186186185142012178187186186186186186186187186187186187186187186187187187187186064186187183187187187186078037",
"000069185185171046058142181143185185185185185185185185185185185185185185185185184155142069039028032064172183185186186187186186186186187186187186187187187186187183070185124075153186187187076042",
"001069185185160045059150183142185185185185185185185185185185185186185185186155017041048068173180139048027037039062151156186187186187186187186187187187186187187175078175059068065185187186063104",
"022061185185182065075124185141185185185185185185185185185185185185185186168006064185177181185134125136169178178142062017078186187186187186187187186187187187187156143181075068150186187186041219",
"188039185185176059128060185141183185185185185185185185185185185185181073009141185186186186183136174160134173186187186181037041173187186187187186187187187187187110172178110059150187187186038239",
"218028184185184077045109185148174185185185185185185185170143110062017062072180185186185186174139181169133134186186185175136067034142186187186187187187187187187062185151109059153187187174079251",
"246019179185185109071126183172150185185185185185185185039004048046125169129129106161170161159128159160129130132134134133111106027039186187187186187187187187173076183075065132186187187147194254",
"253031160185185123049066161185078185185185185185185185184142013007020027039075159154159136154173170132180180161159134125036028142183187186187187186187187187076173161075128075187187187058235254",
"254198105185185184109068066181143173185185185185185185185185174177181155039006074172181186181148061007028151042020028050151186186187187186187187187187187175049185110109123156187187183032248254",
"254237016185185184066065058175180078185185185185185185185185186185185186180039010015010070017061148156141028141153185186186187186187186187186187187187186074027161175077060186187187150101254254",
"254252011171185185152045124150185142168185185185185185185185185185186185185185183185156143156186186186186186186187186186187186186187186187186187187187156060161058109075150187187187036224254254",
"254254191068184185184045060071154183069184185185185185185185185185185185186185186185185186186185185186185186186185186186186187186186187186187186187181046075126128068152186187187172040248254254",
"254254242012182185185176066072048181168078185185185185185185185185186185154070185126041059064041059077039075076034073185186186187186187186187187185049172161058071075175187187187044209253254254",
"254254254082123185185184068048073152185143128185185185185185185185185182010015180039027027025032034027047032017041014155187186186186186187187185069150185132075075077186187187156040227254254254",
"254254254236012182185185171059071075154185109147185185185185185185186185069017180037013027017032045027041017017039014161187186186187186187185064143183068068108110181187187185032158246254254254",
"254254254254085060185185109034077072058150185110126185185185185185185185155061185074110061039041062078041141078041141186186186186186187180059150184152072072072186187187187076094225254254254254",
"254254254254243010160185184182147048058077152185147071180185185185185186185185186185186185185185186186185186186186186186186186186186155045172180065072109108156186187187156038223251254254254254",
"254254254254254212014179185185182147125059150174184172065152185185186185185186185185185185186185186186185186186186186186186186175069071183177128059124068185187187187175027166232254254254254254",
"254254254254254254088034185185185179059065066048178185184128066152184185185185185186185186185186185186186186186186186186174075059161186186181181156044126187186187183032157210253254254254254254",
"254254254254254254246030059185185182059060046168185185185185180126065126168183185185186185186186186185186185185174147065066161185186186186186187186172156186187183039144165246254254254254254254",
"254254254254254254254232029060185185176071156185185185185185185185184161110066071110147154161161154150124071059071143177185186186186186186186186187186187187181039144165233254254254254254254254",
"254254254254254254254254212029057184185185185185185185185185185185185185185185177168150128124124126147155174184186186186186186186186186186186186186187186174037146164216254254254254254254254254",
"254254254254254254254254253202040034180185185185185185185185185185185185185185185186185186186185186186185186186186185186186186186186186186186186186186151037149157216254254254254254254254254254",
"254254254254254254254254254251201091015154185185185185185185185185185185185185186185186185186185186185186186185186186186185186186186186186186187181064050166117216254254254254254254254254254254",
"254254254254254254254254254254252196095028057180185185185185185185185185185185185185185185185185186185186185186186185186186186185186186186186148039113164116231254254254254254254254254254254254",
"254254254254254254254254254254254254203095090020110182185185185185185185185185185185185185185186185185186185186185186185186186186187186153041070166115192245254254254254254254254254254254254254",
"254254254254254254254254254254254254254234103112090027076174185185185185185185185185186185186185185186185185185186185186186186181143041064149157095218254254254254254254254254254254254254254254",
"254254254254254254254254254254254254254254252204102112093039041142174185185185185185185185185185185186185186186186185178151064047096149115095203248254254254254254254254254254254254254254254254",
"254254254254254254254254254254254254254254254254248199088112114070041041064141155172177181181183181178174155143074050057096146149112102213246254254254254254254254254254254254254254254254254254",
"254254254254254254254254254254254254254254254254254254252230192086112114113096070050061050047047050061063070113146149144112095195231252254254254254254254254254254254254254254254254254254254254",
"254254254254254254254254254254254254254254254254254254254254254251234199190102095095112114144144114144114112102102192216241251254254254254254254254254254254254254254254254254254254254254254254",
"254254254254254254254254254254254254254254254254254254254254254254254254254251234204191089083083087089193228241251254254254254254254254254254254254254254254254254254254254254254254254254254254",
"254254254254254254254254254254254254254254254254254254254254254254254254254254254254254254254254254254254254254254254254254254254254254254254254254254254254254254254254254254254254254254254254"
};
