/* XPM */
static char *Pixmap[] = {
"32 32 256 3",
"000 c #7C6835",
"001 c #7A5A44",
"002 c #74604A",
"003 c #7E6041",
"004 c #7D6944",
"005 c #6B6471",
"006 c #76757A",
"007 c #576B8B",
"008 c #5C7697",
"009 c #657791",
"010 c #1197D4",
"011 c #279AD3",
"012 c #339CD0",
"013 c #4E86AD",
"014 c #488FB3",
"015 c #5787A1",
"016 c #5D99BC",
"017 c #57A6BF",
"018 c #7E869F",
"019 c #719393",
"020 c #628DA6",
"021 c #6B97B2",
"022 c #6BA0A9",
"023 c #62A8B4",
"024 c #6BACB7",
"025 c #6CACBB",
"026 c #7BA9AB",
"027 c #75A2B1",
"028 c #7AB3A5",
"029 c #7CB8B5",
"030 c #44A0C9",
"031 c #4FAAD7",
"032 c #59A4C4",
"033 c #5AA4CB",
"034 c #56ADD3",
"035 c #61A2C6",
"036 c #60ACC7",
"037 c #69ADC2",
"038 c #71B8C2",
"039 c #8A5700",
"040 c #8C5D1D",
"041 c #975A05",
"042 c #89513D",
"043 c #9A5C26",
"044 c #8D610D",
"045 c #8F6D00",
"046 c #9A6800",
"047 c #91651F",
"048 c #977403",
"049 c #9C7302",
"050 c #9F7A00",
"051 c #9A673A",
"052 c #AC5800",
"053 c #A95F3D",
"054 c #A46B00",
"055 c #A87800",
"056 c #B26C00",
"057 c #B67600",
"058 c #A8602C",
"059 c #A96A30",
"060 c #A5743D",
"061 c #B47439",
"062 c #856355",
"063 c #846F57",
"064 c #8D6460",
"065 c #987D68",
"066 c #AC7946",
"067 c #A37853",
"068 c #C56400",
"069 c #C56F1D",
"070 c #C37B00",
"071 c #CF7316",
"072 c #D16800",
"073 c #D97603",
"074 c #D57913",
"075 c #D67726",
"076 c #E06E00",
"077 c #E67802",
"078 c #F47B00",
"079 c #96930B",
"080 c #99AE3C",
"081 c #A48400",
"082 c #AD8700",
"083 c #B28800",
"084 c #BD9500",
"085 c #B89C00",
"086 c #A38C3D",
"087 c #BA843F",
"088 c #BD8E3A",
"089 c #A2B500",
"090 c #B7B223",
"091 c #858E52",
"092 c #819E79",
"093 c #9B816D",
"094 c #9F8F7A",
"095 c #9DBA4B",
"096 c #9BBA5A",
"097 c #83A97B",
"098 c #8BAC78",
"099 c #96A568",
"100 c #AD875E",
"101 c #B68748",
"102 c #B18D5C",
"103 c #B89445",
"104 c #B4955B",
"105 c #B69F52",
"106 c #BC9E51",
"107 c #A28665",
"108 c #A5907D",
"109 c #B09C7F",
"110 c #B8A34E",
"111 c #BAAE4C",
"112 c #B5AD57",
"113 c #A1BA6F",
"114 c #B6AB62",
"115 c #B5AC6B",
"116 c #B8A367",
"117 c #B3AC71",
"118 c #B5AC79",
"119 c #ABC400",
"120 c #A7C21D",
"121 c #B5CC00",
"122 c #B4D100",
"123 c #B3D10A",
"124 c #B8D400",
"125 c #ADCD31",
"126 c #B5D92E",
"127 c #B3D93E",
"128 c #9FC570",
"129 c #A5C34F",
"130 c #ACCC41",
"131 c #A8CA4C",
"132 c #A7C758",
"133 c #ACD44B",
"134 c #B4D858",
"135 c #A6CA62",
"136 c #A7CE70",
"137 c #A9D56B",
"138 c #C38400",
"139 c #CD8200",
"140 c #CD8F00",
"141 c #CA9100",
"142 c #CE9C00",
"143 c #CF9B1B",
"144 c #D98304",
"145 c #D58E13",
"146 c #D79400",
"147 c #D89200",
"148 c #D79D13",
"149 c #C58027",
"150 c #C69331",
"151 c #D48C36",
"152 c #CBA400",
"153 c #CBA21F",
"154 c #D6A002",
"155 c #DDAB00",
"156 c #D5A211",
"157 c #D5BB1E",
"158 c #D8B616",
"159 c #CCA72A",
"160 c #C7B72D",
"161 c #C9BA27",
"162 c #DFA436",
"163 c #E78801",
"164 c #E69601",
"165 c #FD8900",
"166 c #FD9700",
"167 c #E3AD01",
"168 c #EBA302",
"169 c #EDAA00",
"170 c #E9AE0C",
"171 c #EBA71A",
"172 c #E3B60F",
"173 c #E7B902",
"174 c #EBB700",
"175 c #EABC04",
"176 c #EFB217",
"177 c #E9B618",
"178 c #EABD11",
"179 c #E8BD1F",
"180 c #F1A100",
"181 c #F0AE00",
"182 c #FFA300",
"183 c #FAA50C",
"184 c #FEAA00",
"185 c #F7B600",
"186 c #FEB300",
"187 c #FDBC00",
"188 c #D2C219",
"189 c #E7C102",
"190 c #E7C409",
"191 c #EAC302",
"192 c #EAC409",
"193 c #ECCA00",
"194 c #E7C716",
"195 c #E9CC16",
"196 c #E9D102",
"197 c #F1C400",
"198 c #FEC300",
"199 c #FFCA00",
"200 c #F2D600",
"201 c #F4DC00",
"202 c #FED300",
"203 c #FEDB00",
"204 c #E6C927",
"205 c #E4C23C",
"206 c #E5CD30",
"207 c #FEE300",
"208 c #FFEA00",
"209 c #E4CA41",
"210 c #8E8E8E",
"211 c #928596",
"212 c #9E9085",
"213 c #949898",
"214 c #898DA9",
"215 c #8992A8",
"216 c #8AB289",
"217 c #89BA94",
"218 c #96A58F",
"219 c #90A597",
"220 c #96B08A",
"221 c #95BD81",
"222 c #84B7A3",
"223 c #9DA6A3",
"224 c #A59185",
"225 c #A09591",
"226 c #B5A383",
"227 c #B4AF85",
"228 c #B3A793",
"229 c #B8AD98",
"230 c #B7B29B",
"231 c #BBB79D",
"232 c #A7A6A5",
"233 c #B7B2A5",
"234 c #B5B2AA",
"235 c #BAB7A0",
"236 c Gray70",
"237 c #BCBBBC",
"238 c #94C084",
"239 c #9EC882",
"240 c #97C494",
"241 c #8CC3A4",
"242 c #C6C1AC",
"243 c #C8C4B6",
"244 c #C5C5C5",
"245 c #C9C7C3",
"246 c #CBCBCB",
"247 c #CECED1",
"248 c #D2D2D2",
"249 c Gray86",
"250 c #E4E4E4",
"251 c Gray92",
"252 c #F3F3F3",
"253 c #FEFEFE",
"254 c black",
"255 c black",
"253253253253253253253253253253253253253252252252252252253253253253253253253253253253253253253253",
"253253253253253253253253253253253252251251250250250251251252253253253253253253253253253253253253",
"253253253253253253253253253251251248234227115114114118230244250252252253253253253253253253253253",
"253253253253253253253252251244117161196201203207203202193158110233250251253253253253253253253253",
"253253253253253253252250227188207208207207203203202203202202202173105244252252253253253253253253",
"253253253253253252249112201208207207203203203203202202199199199199198153234251252253253253253253",
"253253253253252250111207207196206209204194205205189179197198198198198198156234251253253253253253",
"253253253253251114207208196119128033135123025222122221027090167187187187187143237251253253253253",
"253253253253230196208203195125239020080089019092089098035137095150181186186186103249252253253253",
"253253253250160207203207191215012000045048050050049049063211031009140169186186180228251253253253",
"253253253231200207203203192113028004050084152142142142141086241014054146184184184088248252253253",
"253253252111207202203202191122130004082155187185185185185152126022040138180182184164236250253253",
"253253249157203203202202178220024004083167198187187187186104029013039057180182182180109249253253",
"253253245190203202199202174213030002050154176176169162224225036005041070164182182166102249252253",
"253253243193202202199199175122136016129121026216121238034131079041046139180166166166101248251253",
"253253242197202199199199177131240016096120021029134097006046041046057163166166166166087246251253",
"253253243175199199198198169214011001039044047062021010007039054070163166166166166166101246250253",
"253253247172199198198198170132217001046057138070060023031091056163166166166166166165100246250253",
"253253251159199187187187170122131003055147180180164107037133081144165166166165165078108246251253",
"253253253116198187187187168219032001057164184182182163018223022058163165165165165074232247251253",
"253253253237167187187186168218017001057147182182166182075094038008068163165165165066237248252253",
"253253253252106187186186168122131001056164182166182166165085127037064072165165073210244250253253",
"253253253253244148186186171095216001056164166166166166166078099032015052077078067236247251253253",
"253253253253253229168184183151060041056163166166166165166165075053042041072059232237249252253253",
"253253253253253251226164184166147070139165166166165166165165165076072068043210236248252253253253",
"253253253253253253251228145182166164165166166165165165165165165078076051210236246250252253253253",
"253253253253253253252251237101163166166166165166165165165165078069065232236247250252253253253253",
"253253253253253253253252251249232102149144077078163077071061093213236237248250252253253253253253",
"253253253253253253253253253251250248237232225212212210223234236237246249250252253253253253253253",
"253253253253253253253253253253253251250248248246244244244246248249250252253253253253253253253253",
"253253253253253253253253253253253253253252251251250250250251251253253253253253253253253253253253",
"253253253253253253253253253253253253253253253253252253252253253253253253253253253253253253253253"
};
