/* XPM */
static char *Pixmap[] = {
"32 32 256 3",
"000 c #7B6D0C",
"001 c #746B17",
"002 c #796F34",
"003 c #827612",
"004 c #83794A",
"005 c #8E841C",
"006 c #8D8524",
"007 c #938821",
"008 c #988D24",
"009 c #9B9628",
"010 c #99942D",
"011 c #A19729",
"012 c #A1992C",
"013 c #A39E2F",
"014 c #A49D2E",
"015 c #AB9F27",
"016 c #A09B33",
"017 c #A29E30",
"018 c #A6A032",
"019 c #A8A233",
"020 c #AFA932",
"021 c #AFA935",
"022 c #AEAC39",
"023 c #B2A92E",
"024 c #B4AA2B",
"025 c #B6AE2E",
"026 c #B8AA28",
"027 c #B0A53D",
"028 c #B1A932",
"029 c #B2AC36",
"030 c #B6AE31",
"031 c #B5AE34",
"032 c #B2AE39",
"033 c #B5AF39",
"034 c #B7B032",
"035 c #B6B13A",
"036 c #B8B031",
"037 c #BAB035",
"038 c #BEB533",
"039 c #BDB534",
"040 c #B8B33A",
"041 c #BAB43B",
"042 c #BDB739",
"043 c #BCB63C",
"044 c #BFB938",
"045 c #BEBA3D",
"046 c #A89D40",
"047 c #B19F5D",
"048 c #A9A453",
"049 c #B5AB4B",
"050 c #BEAF59",
"051 c #B6B144",
"052 c #BDB444",
"053 c #BFB349",
"054 c #B3A464",
"055 c #B1A16F",
"056 c #B4A776",
"057 c #B6B071",
"058 c #C0B632",
"059 c #C1B936",
"060 c #C1BA39",
"061 c #C2BD3F",
"062 c #C4BB39",
"063 c #C4BD39",
"064 c #C0AE52",
"065 c #C4B44C",
"066 c #C3B941",
"067 c #C3BA46",
"068 c #C2BE41",
"069 c #C3BC45",
"070 c #C5BA42",
"071 c #C4BE41",
"072 c #C6BF46",
"073 c #C1B85D",
"074 c #C5B260",
"075 c #C4BA69",
"076 c #C5C03A",
"077 c #C6C13D",
"078 c #C7C43D",
"079 c #C8C23A",
"080 c #C8C23C",
"081 c #CAC73B",
"082 c #CAC43E",
"083 c #CCC33A",
"084 c #CCC73F",
"085 c #D6CC3D",
"086 c #DFD33F",
"087 c #F0EF3F",
"088 c #C3C143",
"089 c #C6C140",
"090 c #C6C046",
"091 c #C6C445",
"092 c #CAC541",
"093 c #C8C545",
"094 c #CBC947",
"095 c #CEC941",
"096 c #CECA47",
"097 c #CECC46",
"098 c #C9C45A",
"099 c #CFCC50",
"100 c #D0CB45",
"101 c #D2CE42",
"102 c #D1CD45",
"103 c #D4CF43",
"104 c #D4CE45",
"105 c #D1CE49",
"106 c #D0CF4C",
"107 c #D3D145",
"108 c #D5D045",
"109 c #D7D541",
"110 c #D2D049",
"111 c #D5D148",
"112 c #D4D24D",
"113 c #D7D449",
"114 c #D9D546",
"115 c #D9D549",
"116 c #D8D64D",
"117 c #DCD845",
"118 c #DAD84A",
"119 c #DAD84C",
"120 c #DDD949",
"121 c #DCDA4D",
"122 c #DEDC4E",
"123 c #D3D055",
"124 c #D8D654",
"125 c #DEDC51",
"126 c #DDDC5E",
"127 c #CECC63",
"128 c #C9C679",
"129 c #D1D066",
"130 c #DBD87A",
"131 c #E1DD49",
"132 c #E1DE4D",
"133 c #E6DF4A",
"134 c #E1DE51",
"135 c #E0DF56",
"136 c #E2E04E",
"137 c #E4E24B",
"138 c #E4E14D",
"139 c #E5E44F",
"140 c #E8E643",
"141 c #E9E54C",
"142 c #ECEB44",
"143 c #EFEE40",
"144 c #EDEC46",
"145 c #EAE84F",
"146 c #E2E051",
"147 c #E3E254",
"148 c #E4E251",
"149 c #E4E355",
"150 c #E6E451",
"151 c #E5E455",
"152 c #E8E651",
"153 c #E8E655",
"154 c #EAE851",
"155 c #EAE856",
"156 c #EDEA50",
"157 c #ECEA54",
"158 c #EDEC55",
"159 c #ECEA59",
"160 c #EDEC59",
"161 c #F0EE51",
"162 c #F0EE55",
"163 c #F0EF5D",
"164 c #F3F340",
"165 c #F5F441",
"166 c #F1F049",
"167 c #F6F64D",
"168 c #F9F84D",
"169 c #FDFC4E",
"170 c #F2F153",
"171 c #F1F054",
"172 c #F4F356",
"173 c #F7F651",
"174 c #F5F455",
"175 c #F2F159",
"176 c #F1F05C",
"177 c #F4F359",
"178 c #F4F35D",
"179 c #F5F559",
"180 c #F5F55D",
"181 c #F8F757",
"182 c #F8F759",
"183 c #F8F75D",
"184 c #FBFB52",
"185 c #FAF956",
"186 c #FEFD50",
"187 c #FEFE55",
"188 c #F9F85A",
"189 c #FAF95D",
"190 c #FCFB5A",
"191 c #FCFB5C",
"192 c #FEFE5A",
"193 c #FEFE5D",
"194 c #E2E072",
"195 c #E3E177",
"196 c #F6F660",
"197 c #FAFA60",
"198 c #FCFB62",
"199 c #FEFE61",
"200 c #FEFE65",
"201 c #FFFF68",
"202 c #A59C8A",
"203 c #BDAE86",
"204 c #BCB393",
"205 c #B8B3AC",
"206 c #C7B983",
"207 c #C2BA9B",
"208 c #C7BEA6",
"209 c #C9C786",
"210 c #D1CC9A",
"211 c #D3D080",
"212 c #D5D288",
"213 c #DDDA8C",
"214 c #D5D391",
"215 c #D6D397",
"216 c #C9C4AE",
"217 c #CFC7B6",
"218 c #CFCDB1",
"219 c #D2C7A6",
"220 c #D9CFB5",
"221 c #D7D5A4",
"222 c #DAD6A2",
"223 c #D7D3BF",
"224 c #DBD1B5",
"225 c #E1DFB9",
"226 c #E3E1B1",
"227 c #E5E4B7",
"228 c #D6D1C9",
"229 c #D9D2C0",
"230 c #DCD9CC",
"231 c #DAD6D3",
"232 c #E2DCCF",
"233 c #E0DED5",
"234 c #E3E0DA",
"235 c #E9E4D6",
"236 c #EAE9DD",
"237 c #EEEDDE",
"238 c #EBEAE7",
"239 c #ECEBE0",
"240 c #EBEAEB",
"241 c #F0EFE1",
"242 c #F0EFE5",
"243 c #F0EEEB",
"244 c #F2F1ED",
"245 c #F5F5ED",
"246 c #F4F3F0",
"247 c #F5F4F2",
"248 c #F7F6F4",
"249 c #F8F7F0",
"250 c #F8F7F6",
"251 c #F9F8F5",
"252 c #FAF9F8",
"253 c #FCFBFA",
"254 c #FDFDFB",
"255 c #FEFEFE",
"255255255255255255255255255255255255255255255255255255255255255255255255255255255255255255255255",
"255255255255255255255255255255255255254237222098071098222241254255255255255255255255255255255255",
"255255255255255255255255255255245226194158179188188189179160195227249255255255255255255255255255",
"255255255255255255255255242130143169192145120132084120152156193187142213245255255255255255255255",
"255255255255255255253215087173138079044059060079084076036039095162183192140225255255255255255255",
"255255255255255246123169170138030095101111115118121118111107150103038114199168212254255255255255",
"255255255255244109192114030136120121121138042019021040093148122110107095132155187211255255255255",
"255255255250110187172172120118139042014018118121122102040022018122122122082044197184221255255255",
"255255255128186101060136136118007089188193199199199199191158110008096134115077077199142239255255",
"255255230165145023132120078011152199193193193199179097035032199180012043148113039092193129255255",
"255254099187059095122171020172193193102017029104062102094199199200183096198116115158201166236255",
"255233164185108132162193193193193193188177110028058093199199199199200200200178122119100190214255",
"255209187063114139193192193193193193199193199110010183199200199200199200200200121113034175126244",
"240124185025122157193192193193193193193199193017006149199199200200200200200200151104042118160218",
"205145117023150177192193193193193199193199199122068200199200199200200200200201160118077104178048",
"004170131114150182193193193193193193199199199146091200200199200200200200200201163125102134196009",
"001181141076148188193193193193193199193122095045020125160197200200200200201201160125104197196016",
"002174137030146179193193193193199190061097157156085103116068125200200201200201151122024180163057",
"202156161023150158193193193115077031083182193133141086183162026061200201200201121121038200135223",
"231116185030120136193193193121012031015101141131083114083058037125200201201196116079108201127247",
"252075192079063148172193193193193193097022088093112091106159200200200201201110095063159198210255",
"255216167141023120122192193193193193191191152158179177175198200200200201160063058104201122235255",
"255243081193079039152132193193193193013089000003005005003068200200201176111108025176199073251255",
"255255204167120025063138132192193193113122045033061068045149200200155104114026153201105224255255",
"255255247051192156025101145114162193199199199199199200200200179115132136024146201147075250255255",
"255255255230076192063060193192136114139171188189188175150113118180200200153198155065235255255255",
"255255255255207078185192193193193193162138120120120132157189200200199200201147065220255255255255",
"255255255255254204040170193193193193193199199199199199199199199199200197110065220255255255255255",
"255255255255255255208046103181193193193193193199199199199199199197134066074232255255255255255255",
"255255255255255255255234056027092139172190193193193191179153111066064219248255255255255255255255",
"255255255255255255255255255234207054049052069090072067053050206229247255255255255255255255255255",
"255255255255255255255255255255255247228204055047054203217238255255255255255255255255255255255255"
};
