/* XPM */
static char *Pixmap[] = {
"16 16 256 3",
"000 c #B3AD37",
"001 c #B6B138",
"002 c #B6A952",
"003 c #BAAC5B",
"004 c #C4C13B",
"005 c #C5C03F",
"006 c #CBC43C",
"007 c #D3CE3F",
"008 c #D9D52F",
"009 c #D8D43C",
"010 c #DBD73C",
"011 c #E2E034",
"012 c #C4C041",
"013 c #C8C340",
"014 c #C8C441",
"015 c #C8C443",
"016 c #CDC840",
"017 c #CFC941",
"018 c #CFCA40",
"019 c #CFCB43",
"020 c #CECB44",
"021 c #D1CC42",
"022 c #D3CE40",
"023 c #D0CD45",
"024 c #D2CD45",
"025 c #D0CD4A",
"026 c #D3CD48",
"027 c #D1CF4D",
"028 c #D5CD55",
"029 c #D5D145",
"030 c #D7D444",
"031 c #D2D049",
"032 c #D5D149",
"033 c #D5D249",
"034 c #D7D34A",
"035 c #D6D44A",
"036 c #D7D44A",
"037 c #D7D44D",
"038 c #DAD447",
"039 c #DBD747",
"040 c #DCD443",
"041 c #D9D549",
"042 c #D8D54B",
"043 c #D9D649",
"044 c #D9D74B",
"045 c #DBD749",
"046 c #DAD64B",
"047 c #D9D64C",
"048 c #DBD843",
"049 c #DAD84A",
"050 c #DBD84A",
"051 c #DBD84B",
"052 c #DAD84C",
"053 c #DBD94E",
"054 c #DCD94A",
"055 c #DDDA49",
"056 c #DDDB4F",
"057 c #DFDD4A",
"058 c #DFDD4D",
"059 c #DEDC4F",
"060 c #D9D45A",
"061 c #DCD559",
"062 c #DEDA52",
"063 c #DDDC51",
"064 c #DEDC50",
"065 c #DFDC51",
"066 c #CBC879",
"067 c #D5D363",
"068 c #E0DD47",
"069 c #E0DC49",
"070 c #E1DE48",
"071 c #E2DF4A",
"072 c #E1DF4E",
"073 c #E6E343",
"074 c #E3E049",
"075 c #E7E54F",
"076 c #EBEA47",
"077 c #EDEC4D",
"078 c #E2E050",
"079 c #E5E350",
"080 c #E4E253",
"081 c #E5E252",
"082 c #E8E655",
"083 c #E8E754",
"084 c #E8E755",
"085 c #E9E853",
"086 c #EAE954",
"087 c #EAE856",
"088 c #EAE857",
"089 c #EEE952",
"090 c #EDEB57",
"091 c #EEEC53",
"092 c #EFED53",
"093 c #EDEC54",
"094 c #EDEC56",
"095 c #EEED57",
"096 c #EDEB58",
"097 c #EFED58",
"098 c #F0EE5A",
"099 c #F0EF5B",
"100 c #F1F057",
"101 c #F4F357",
"102 c #F1F059",
"103 c #F5F458",
"104 c #F5F559",
"105 c #F6F558",
"106 c #F6F559",
"107 c #F6F55A",
"108 c #F6F55B",
"109 c #F7F75B",
"110 c #F7F65C",
"111 c #F8F75B",
"112 c #FAF95A",
"113 c #FAF95B",
"114 c #F9F85E",
"115 c #FAFA5C",
"116 c #FBFB5D",
"117 c #FFFF59",
"118 c #FCFC5F",
"119 c #FFFF5D",
"120 c #FFFF5E",
"121 c #FFFF5F",
"122 c #E5E36B",
"123 c #E7E56F",
"124 c #E8E66B",
"125 c #ECEA67",
"126 c #EAE979",
"127 c #FAFA61",
"128 c #FBFB65",
"129 c #FCFB63",
"130 c #FFFF60",
"131 c #FFFF61",
"132 c #FEFE64",
"133 c #FFFF64",
"134 c #FFFF65",
"135 c #FFFF66",
"136 c #FFFF67",
"137 c #FFFF68",
"138 c #BAAF83",
"139 c #C7BD9D",
"140 c #C8C384",
"141 c #D4CB9F",
"142 c #D1D090",
"143 c #DBD79E",
"144 c #DDDB92",
"145 c #DFD9A1",
"146 c #EEED8B",
"147 c #ECEBA1",
"148 c #EBEAB6",
"149 c #F1F1A5",
"150 c #DEDAD5",
"151 c #E4E1D7",
"152 c #E7E4DA",
"153 c #ECEBD1",
"154 c #F1F0CB",
"155 c #F3F2CF",
"156 c #EFEBE3",
"157 c #EEECE9",
"158 c #EFEDEA",
"159 c #F6F6E4",
"160 c #F3F3EF",
"161 c #F4F2EC",
"162 c #F9F8EE",
"163 c #F5F3F0",
"164 c #F8F6F3",
"165 c #F8F7F5",
"166 c #F9F9F1",
"167 c #FCFCF7",
"168 c #FCFCFA",
"169 c #FDFDFC",
"170 c #FDFDFD",
"171 c #FEFEFE",
"172 c Gray100",
"173 c black",
"174 c black",
"175 c black",
"176 c black",
"177 c black",
"178 c black",
"179 c black",
"180 c black",
"181 c black",
"182 c black",
"183 c black",
"184 c black",
"185 c black",
"186 c black",
"187 c black",
"188 c black",
"189 c black",
"190 c black",
"191 c black",
"192 c black",
"193 c black",
"194 c black",
"195 c black",
"196 c black",
"197 c black",
"198 c black",
"199 c black",
"200 c black",
"201 c black",
"202 c black",
"203 c black",
"204 c black",
"205 c black",
"206 c black",
"207 c black",
"208 c black",
"209 c black",
"210 c black",
"211 c black",
"212 c black",
"213 c black",
"214 c black",
"215 c black",
"216 c black",
"217 c black",
"218 c black",
"219 c black",
"220 c black",
"221 c black",
"222 c black",
"223 c black",
"224 c black",
"225 c black",
"226 c black",
"227 c black",
"228 c black",
"229 c black",
"230 c black",
"231 c black",
"232 c black",
"233 c black",
"234 c black",
"235 c black",
"236 c black",
"237 c black",
"238 c black",
"239 c black",
"240 c black",
"241 c black",
"242 c black",
"243 c black",
"244 c black",
"245 c black",
"246 c black",
"247 c black",
"248 c black",
"249 c black",
"250 c black",
"251 c black",
"252 c black",
"253 c black",
"254 c black",
"255 c black",
"172172172172172169154123081147162172172172172172",
"172172172171155124074055045069098149167172172172",
"172172168126011022019013014020043010077159172172",
"172170122073049014052094083031012036018076166172",
"172148008054023106086078041064114037059068146171",
"160082039112120120116033015133133135127032072153",
"142048058119119120131084063134133134135047046067",
"004071079119120130095051034099132135136056088027",
"066070050119105005017089040038026137128024088143",
"152075016101120104044035053080129137065021125161",
"172144009029105121042000001025134087006093145172",
"172163057007091092103111110102090097085061164172",
"172172151030117120113106107118133115028156172172",
"172172172158140062100109108096060141165172172172",
"172172172172172150138002003139157172172172172172",
"172172172172172172172172172172172172172172172172"
};
