/* XPM */
static char *Pixmap[] = {
"64 64 256 3",
"000 c #3E686E",
"001 c #553F40",
"002 c #5E493A",
"003 c #6D4B0C",
"004 c #6A431B",
"005 c #7C5200",
"006 c #785514",
"007 c #67442A",
"008 c #6B4D36",
"009 c #6B5B33",
"010 c #754B22",
"011 c #795939",
"012 c #796800",
"013 c #746218",
"014 c #73612C",
"015 c #776436",
"016 c #5A5251",
"017 c #595B63",
"018 c #536376",
"019 c #5C7E7E",
"020 c #684940",
"021 c #635347",
"022 c #655556",
"023 c #745C47",
"024 c #78585B",
"025 c #715E61",
"026 c #676B51",
"027 c #78674B",
"028 c #766958",
"029 c #7D7743",
"030 c #7A7554",
"031 c #696868",
"032 c #7D6F60",
"033 c #7F7B63",
"034 c Gray47",
"035 c #0977A9",
"036 c #2E668B",
"037 c #2B6791",
"038 c #29729C",
"039 c #35698C",
"040 c #356B92",
"041 c #406F92",
"042 c #497797",
"043 c #567788",
"044 c #6A7294",
"045 c #72884F",
"046 c #718151",
"047 c #7D9B53",
"048 c #6A8565",
"049 c #749D6B",
"050 c #719477",
"051 c #7FA876",
"052 c #0084BC",
"053 c #398EBB",
"054 c #008CC9",
"055 c #0699DA",
"056 c #1599D7",
"057 c #2B9FDA",
"058 c #3792C1",
"059 c #2EA1DF",
"060 c #34A2DE",
"061 c #3EA6E0",
"062 c #5E8680",
"063 c #4C86A7",
"064 c #4D8EBA",
"065 c #4A93B9",
"066 c #5389AF",
"067 c #5095A5",
"068 c #5B93BB",
"069 c #5FA2B4",
"070 c #668F80",
"071 c #689D91",
"072 c #6583A8",
"073 c #6099A0",
"074 c #78A79C",
"075 c #6BA4BD",
"076 c #6CB3BA",
"077 c #70A9A0",
"078 c #78B7BD",
"079 c #4E94C2",
"080 c #5798C6",
"081 c #4BA5C8",
"082 c #48A7DA",
"083 c #59A9CC",
"084 c #58AAD8",
"085 c #46ABE1",
"086 c #55ACE0",
"087 c #6D9BCC",
"088 c #749BCD",
"089 c #68AACD",
"090 c #63A5D4",
"091 c #6AB1C8",
"092 c #63B0D4",
"093 c #73A7C8",
"094 c #7ABAC0",
"095 c #803700",
"096 c #B21E27",
"097 c #854D00",
"098 c #8B4D18",
"099 c #885700",
"100 c #8D511A",
"101 c #974C00",
"102 c #904F16",
"103 c #935D00",
"104 c #9D5814",
"105 c #8C5B2A",
"106 c #896600",
"107 c #897500",
"108 c #986500",
"109 c #956B1A",
"110 c #997800",
"111 c #9B7615",
"112 c #8C6829",
"113 c #866037",
"114 c #857939",
"115 c #956727",
"116 c #916833",
"117 c #957C31",
"118 c #AD4B00",
"119 c #A95702",
"120 c #A25812",
"121 c #B75B00",
"122 c #A95D3B",
"123 c #A56A00",
"124 c #A56710",
"125 c #A77800",
"126 c #B36B00",
"127 c #B67600",
"128 c #B17024",
"129 c #B37939",
"130 c #825F59",
"131 c #904E55",
"132 c #9E5D46",
"133 c #91596D",
"134 c #836748",
"135 c #856858",
"136 c #857849",
"137 c #857451",
"138 c #9C674A",
"139 c #906F57",
"140 c #9A704F",
"141 c #817E69",
"142 c #837F77",
"143 c #A0465A",
"144 c #D22842",
"145 c #C15E00",
"146 c #C66700",
"147 c #C77A00",
"148 c #D46A00",
"149 c #D77800",
"150 c #E06F00",
"151 c #E57700",
"152 c #F47B00",
"153 c #916A8E",
"154 c #A6749D",
"155 c #B26A8A",
"156 c #A376A0",
"157 c #8A8200",
"158 c #829000",
"159 c #9D8F00",
"160 c #9C9A00",
"161 c #88803B",
"162 c #938529",
"163 c #988730",
"164 c #8EA400",
"165 c #96A700",
"166 c #9DB800",
"167 c #A98400",
"168 c #A48C1D",
"169 c #AC9807",
"170 c #A79514",
"171 c #B68801",
"172 c #BA9503",
"173 c #B39615",
"174 c #AA9B2C",
"175 c #A89E3B",
"176 c #B5853C",
"177 c #AEA300",
"178 c #A1BF00",
"179 c #B7A503",
"180 c #8D8343",
"181 c #8B8A55",
"182 c #8F9255",
"183 c #948545",
"184 c #908556",
"185 c #909851",
"186 c #8B8267",
"187 c #898572",
"188 c #9E946A",
"189 c #8BAE52",
"190 c #98BE74",
"191 c #AB9041",
"192 c #A39A54",
"193 c #AAC800",
"194 c #B1CE00",
"195 c #BBDA00",
"196 c #B6D816",
"197 c #ADD23C",
"198 c #BBDB21",
"199 c #B4D737",
"200 c #9FCA69",
"201 c #9FCA74",
"202 c #A0C44C",
"203 c #ADD255",
"204 c #B2D648",
"205 c #B1D657",
"206 c #A3CC69",
"207 c #A4CD75",
"208 c #A9D267",
"209 c #C78600",
"210 c #C79700",
"211 c #D78700",
"212 c #D89700",
"213 c #C29C38",
"214 c #C0AA04",
"215 c #CDBA00",
"216 c #DBA700",
"217 c #D5B800",
"218 c #E58A00",
"219 c #E89500",
"220 c #FD8800",
"221 c #FD9600",
"222 c #E6A800",
"223 c #EDB700",
"224 c #FDA600",
"225 c #FDB800",
"226 c #C0DD00",
"227 c #D9C100",
"228 c #E5CA00",
"229 c #EBD000",
"230 c #FEC700",
"231 c #FED700",
"232 c #FEE300",
"233 c #888888",
"234 c #979797",
"235 c #8E8FB8",
"236 c #8893B9",
"237 c #82AF8A",
"238 c #88BC87",
"239 c #8DB596",
"240 c #97B196",
"241 c #87BFA7",
"242 c #81B9B3",
"243 c #A09F9F",
"244 c #A7A7A7",
"245 c #B7B7B7",
"246 c #8EC29F",
"247 c #98C589",
"248 c #95C694",
"249 c #8AC1A6",
"250 c #85C0B1",
"251 c #A1CD82",
"252 c Gray78",
"253 c #D8D8D8",
"254 c #E7E7E7",
"255 c #FDFDFD",
"255255255255255255255255255255255255255255255255255255255255255255255255255255255255255255255255255255255255255255255255255255255255255255255255255255255255255255255255255255255255255255255255",
"255255255255255255255255255255255255255255255255255255255255255255255255255254255254254254254254254254255254255255255255255255255255255255255255255255255255255255255255255255255255255255255255",
"255255255255255255255255255255255255255255255255255255255255255255254255254254254253254253253254253254253254254254254255255255255255255255255255255255255255255255255255255255255255255255255255",
"255255255255255255255255255255255255255255255255255255255254254254254253253253253253253253253253253253253253253253254254254255255255255255255255255255255255255255255255255255255255255255255255",
"255255255255255255255255255255255255255255255255255255254254254253253253253245244233034141033033141142234244252253253253253254254254255255255255255255255255255255255255255255255255255255255255",
"255255255255255255255255255255255255255255255255254254254253253253244034161170214217228229229229229227217172168136142245253253254254254255255255255255255255255255255255255255255255255255255255",
"255255255255255255255255255255255255255255254254254253253252233161179228232232232232232232232231232231231231231230217169136234252253253254254255255255255255255255255255255255255255255255255255",
"255255255255255255255255255255255255255255254254253253233162215232232232232232232231232232231231231231231231231231231231230210114234253253254254255254255255255255255255255255255255255255255255",
"255255255255255255255255255255255255254254254253245114215232232232232232232232231232231231231231231231231231231230231230231231230172030245253254254255255255255255255255255255255255255255255255",
"255255255255255255255255255255255254254254253142170232232232232232232232232231232231231231231231231231231230231230231230230230230230223111234253253254254255255255255255255255255255255255255255",
"255255255255255255255255255255254254254253030215232232232232232232232231232231231231231231231231231231230231230230230230230230230230230230171034253253254254255255255255255255255255255255255255",
"255255255255255255255255255254254254252029228232232232232232232232231232231231231231231231231231230231230231230231230230230230230230230225230210028253253254254255255255255255255255255255255255",
"255255255255255255255255255254254253029229232232232232232232232232232231232231231231231231231230231230231230230230230230230230230230225230225230212028253253254254255255255255255255255255255255",
"255255255255255255255255254254253030229232232232232179177177192188188188175177177192188188188174177169191213216223230230230230225230225230225225230212031253254254255255255255255255255255255255",
"255255255255255255255254254254034227232232232232231160195194200083082083197195194251081061076196194195238081058050159210225225230225225225225225225225209233253254254255255255255255255255255255",
"255255255255255255255254254244179232232232232232231165195195195078090241226226195199091090247226195226203089090201195165167222223225225225225225225225224111244253254254255255255255255255255255",
"255255255255255255254254253162232232232232232231231160195226199075079074193193194202068080237193194194201090090247195226178110216222223225225225225225225224134252253254255255255255255255255255",
"255255255255255255254254034228232232232232231232231185203203242042013014012012012013014015014012012012026043068092251204251063125212216222225225225224225225209233253253254255255255255255255255",
"255255255255255255254252170232232232231232231232231140236084060040110107110110110167110167110167110125110108009044154089084055017171212222222224225224225224224115252253254254255255255255255255",
"255255255255255254254141229232232231232231231231231119154085055039107106110110167167167171167167167167167167167099096088061055035108209210222224225224225224225211142253253254255255255255255255",
"255255255255255254253170232232231232231231231231231184247246084040106107110167172172210210210210210210210210209171027247242057054006125209212222224225224224224224112252253254254255255255255255",
"255255255255254254234227232231232231231231231231231160195226208043106107167171210216216216216216216216216212216212110194195249083021123127210219224224224224224224209234253253254255255255255255",
"255255255255255254161231232231231231231231231231230165195195198048106110167210216223223223225223223225223223222222209178226207083022108125209212224224224224224224219032252253254255255255255255",
"255255255255254252173232231231231231231231231231230160195226204019106110171210217225230230225230225225225225225225209193226248080021106123147212219224224224224224221115252252254254255255255255",
"255255255255254244217231231231231231231230231230230185208203094042106110167210222225230225230225225225225225225225183203251092079003103123171211219224224224224224224127244252253254255255255255",
"255255255255254187229231231231231231231231230231230138236086060039106110171210216225230225225225225225225225225212133089086056035099099123127211219224224224221224221211142252253254255255255255",
"255255255254254183231231231231231230231230231230230119154085055040106110171210222225225225230225225225225224210131144087061054017103103123127211219224224221224221224219032252253254254255255255",
"255255255255254162231231231231231230231230231230230184247248083037005106108167209216222222212222212210176034053090240251250038099103103123147211219224221224221221221221134252252254254255255255",
"255255255254253168231231230231230231230230230230230160195226208069064073166166166189067053071166178178238083086241195226165099108103108126147212221221224221224221221221116252252253254255255255",
"255255255255253173231231231230231230231230230230230160195195195078084249226226226199091090248226226195203089090207194158099108103103123127211219221224221221221221221221115245252253254255255255",
"255255255255252173231231230231230230230230230230230160195195199093090242196226226208089090239195195226201080066046099103123103103108127147218219221224221221221221221221115245252253254255255255",
"255255255254253173231230230230230230230230230230225182208208078064043042047164164070063068090248203190000004099108123108103108123126147211219221221221221221221221221221115245252253254255255255",
"255255255255253168231230231230230230230230230230225138236084060036005005005005099099099006018153093084056038010103103108108123126147211218221221221221221221221221221220116245252252254254255255",
"255255255255254162230230230230230230230230230225230118156085055040106106103108108110123110108095072085055055052002103108126127211211219221221221221221221221221220221220113245252253254255255255",
"255255255255254183230230230230230230225230225230225184247247083040099106108110126125127127127127011077082056082065003123126147211219221221221221221221221221220221221152027245252253254254255255",
"255255255255254186223230230230230230230225230225225160226195208043099106123125171209209209209209127107238092084249165097127211218221221221221221221221221220221220220151031252252253254255255255",
"255255255255255234216230230230225230225230225230225159195195198048099108125127209212219219212219212147045089084201226158119209218218221221221221221220221220221220221146233245252253254254255255",
"255255255255254252172230230225230225230225225225225160195226204019099108125209212224224224224221219219126063090247195194012146147218220221221221220221220220220220220104244245252253254255255255",
"255255255255255254117230230225230225225225225225225181208206094042099108127209212224224224224224224221219134080092248205051098147149218220221220221220221220220220220011244252252253254255255255",
"255255255255255254142222230225225225225225225225225132235086059039099108127209219224224224224224224221221211042235155089082039119147151218220221220220220220220220148034245245253253255255255255",
"255255255255255254252171225230225225225225225225225118156085055039099108127209212224224224224221224221224221128143144087061054020126147151220220220220220220220220104243245252252254254255255255",
"255255255255255255254137225225225225225225225225224184247247092039099108127209218224224224221224221224221221218130239207241060035101146149218220220220220220220151022244245252253254255255255255",
"255255255255255255254245171225225225225225225224224160226195208043099108127147212221224224221224221221221221221147164226195246083018119146149152220220220220220120233245245252253254255255255255",
"255255255255255255254254137223225225225224225225224159195195198048097108126209218221224221224221224221221221221220123193195207089080010121148151152220220220150016244245252253254254255255255255",
"255255255255255255255254252125225225224225224224224160195226205019097108126147212221221224221221221221221221221221151157195248090087062101146149151220152220100234244245252253254254255255255255",
"255255255255255255255254254233212225224225224225224181200200076041099108126147218221224221221221221221221221221220220146049083081090083016119146150152220121031244244252252254254255255255255255",
"255255255255255255255255254254134222225224225224224129139135025008099103126147218221221221221221221221221221220221220220122024022022022001101121148151148016243244245252253254255255255255255255",
"255255255255255255255255254254253112224224224224224224221211147126108123126149218221221221221221221220221220221220220220152149145119101101119121148148007234244245252253253254255255255255255255",
"255255255255255255255255255254254245109224224224224224219219147147123127147211218221221221221221221221220221220220220220152151148146119119121145145010233243244245252253254254255255255255255255",
"255255255255255255255255255255254254245109224224224224221219218209147147211218220221221221221220221220221220220220220220220152151148146146146145004034234244245252253254254255255255255255255255",
"255255255255255255255255255255254254254245112219224224221219219218211218218218221221221221220221220220220220220220220220220152152152150150121007142234243245252253253254255255255255255255255255",
"255255255255255255255255255255255254254254252023211224221224221219221218221220221221221220221220221220220220220220220220220152152152152121001233234243245245253253254254255255255255255255255255",
"255255255255255255255255255255255255254254253253034124219221221221221221221221221221220221220220220220220220220220152220152220152151102031234243244245252252253254254255255255255255255255255255",
"255255255255255255255255255255255255255254254254253244027126221221221221221220221220221220220220220220220220220152220220152151120002233243243244245252252253254254255255255255255255255255255255",
"255255255255255255255255255255255255255255254254254253252243027124218220221221221220220220220220220220220220220220152148120021142243243244244245252252253254254255255255255255255255255255255255",
"255255255255255255255255255255255255255255255254254254253253252244034113124148151220220220220220220152152151146120011031234243244244245245252252253253254254255255255255255255255255255255255255",
"255255255255255255255255255255255255255255255255254255254253253252252245244233031023113105105105105113023017142234243244243244245245245252252253254254254255255255255255255255255255255255255255",
"255255255255255255255255255255255255255255255255255254254254254253252252252245245245245244244244244244244244244244244245245245245252252252253254254254255255255255255255255255255255255255255255",
"255255255255255255255255255255255255255255255255255255255254254254254253253252252252245245245245245245245245245245245252245252252253253254254254255255255255255255255255255255255255255255255255",
"255255255255255255255255255255255255255255255255255255255255255254254254254253253253252252252252252245252252252252252252253253253254254254254255255255255255255255255255255255255255255255255255",
"255255255255255255255255255255255255255255255255255255255255255255255254254254254254253253253253253253253253253253253254253254254254255255255255255255255255255255255255255255255255255255255255",
"255255255255255255255255255255255255255255255255255255255255255255255255255255254254254254254254254254254253254254254254254255254255255255255255255255255255255255255255255255255255255255255255",
"255255255255255255255255255255255255255255255255255255255255255255255255255255255255255255254255254254254255254255254255255255255255255255255255255255255255255255255255255255255255255255255255",
"255255255255255255255255255255255255255255255255255255255255255255255255255255255255255255255255255255255255255255255255255255255255255255255255255255255255255255255255255255255255255255255255"
};
