/* XPM */
static char *Pixmap[] = {
"64 64 256 3",
"000 c #020002",
"001 c #000118",
"002 c #160605",
"003 c #1A0312",
"004 c #1A1308",
"005 c #191716",
"006 c #1B2422",
"007 c #2B150A",
"008 c #281B16",
"009 c #320C00",
"010 c #311D0E",
"011 c #2D231B",
"012 c #38230D",
"013 c #38291A",
"014 c #2B2325",
"015 c #362924",
"016 c #39332A",
"017 c #393733",
"018 c #412A08",
"019 c #422C15",
"020 c #4A300A",
"021 c #49341B",
"022 c #553B19",
"023 c #402D23",
"024 c #483827",
"025 c #473E33",
"026 c #523D23",
"027 c #4D402F",
"028 c #464138",
"029 c #584327",
"030 c #574836",
"031 c #67471D",
"032 c #664B26",
"033 c #634E32",
"034 c #6A5229",
"035 c #695539",
"036 c #724F20",
"037 c #775728",
"038 c #755B36",
"039 c #7E632E",
"040 c #7A613A",
"041 c #4D4A45",
"042 c #554C42",
"043 c #504D53",
"044 c #5D5548",
"045 c #675843",
"046 c #685C51",
"047 c #715C41",
"048 c #786548",
"049 c #776855",
"050 c #786F63",
"051 c #77716D",
"052 c #815D29",
"053 c #825E30",
"054 c #88632C",
"055 c #896836",
"056 c #8C7138",
"057 c #92672E",
"058 c #936C35",
"059 c #9A7437",
"060 c #A67105",
"061 c #A37535",
"062 c #A2753A",
"063 c #A37836",
"064 c #A37B3B",
"065 c #A97A36",
"066 c #AA7C3A",
"067 c #B27E3A",
"068 c #856B44",
"069 c #8A7149",
"070 c #8B7755",
"071 c #987846",
"072 c #937556",
"073 c #957C53",
"074 c #957D5B",
"075 c #997C55",
"076 c #9F7C5B",
"077 c #867762",
"078 c #827B78",
"079 c #A37C45",
"080 c #A17B4A",
"081 c #AA823B",
"082 c #BC842F",
"083 c #B6853B",
"084 c #8E805D",
"085 c #9C814B",
"086 c #998459",
"087 c #9A8366",
"088 c #9C8B79",
"089 c #A88546",
"090 c #A78956",
"091 c #AD944D",
"092 c #AD9255",
"093 c #B68944",
"094 c #B68D55",
"095 c #BB9448",
"096 c #B9985A",
"097 c #A28362",
"098 c #A38D62",
"099 c #A2886A",
"100 c #AA8960",
"101 c #A08C72",
"102 c #A18F7E",
"103 c #A89365",
"104 c #AB9574",
"105 c #B79A68",
"106 c #B19E72",
"107 c #B29D79",
"108 c #BE9E7A",
"109 c #BFA148",
"110 c #BCA267",
"111 c #BAA278",
"112 c #C38B2B",
"113 c #C18A3B",
"114 c #C89339",
"115 c #D0932F",
"116 c #D49631",
"117 c #DAA73C",
"118 c #E3A23A",
"119 c #C38E43",
"120 c #C08F50",
"121 c #C89747",
"122 c #C2955B",
"123 c #C39B52",
"124 c #C69B59",
"125 c #C89551",
"126 c #C99C51",
"127 c #CB9D58",
"128 c #D39B48",
"129 c #D59F50",
"130 c #C09B64",
"131 c #CAA148",
"132 c #C9A456",
"133 c #DAA44B",
"134 c #D3A555",
"135 c #D4A359",
"136 c #D3AC55",
"137 c #D2AC5B",
"138 c #D9A454",
"139 c #DAA559",
"140 c #DDAA51",
"141 c #DCAD5C",
"142 c #D7B149",
"143 c #D9B458",
"144 c #C8A768",
"145 c #C4A971",
"146 c #C5AD7E",
"147 c #C8A576",
"148 c #CBAD74",
"149 c #C8B075",
"150 c #D7A965",
"151 c #D1A870",
"152 c #DAB364",
"153 c #D5B876",
"154 c #E5A74D",
"155 c #E8AC53",
"156 c #ECB54C",
"157 c #E8B657",
"158 c #F0AD49",
"159 c #F1AE51",
"160 c #F9B858",
"161 c #E4AE63",
"162 c #E2B263",
"163 c #E2B46E",
"164 c #E4BB63",
"165 c #E2BB6C",
"166 c #EBB663",
"167 c #EABB62",
"168 c #ECBB6C",
"169 c #E1BC73",
"170 c #E2BA7A",
"171 c #EABE74",
"172 c #F4B963",
"173 c #DEC261",
"174 c #DAC077",
"175 c #ECC14F",
"176 c #EBC55A",
"177 c #FDC35D",
"178 c #F4D15D",
"179 c #EBC565",
"180 c #E8C574",
"181 c #FECA62",
"182 c #F3CC77",
"183 c #FED568",
"184 c #FED974",
"185 c #FFE16C",
"186 c #FEE376",
"187 c Gray52",
"188 c #938C89",
"189 c #9E9288",
"190 c #999794",
"191 c #A19287",
"192 c #A19388",
"193 c #A49A8C",
"194 c #A99585",
"195 c #AD9F84",
"196 c #AC9B8B",
"197 c #A29A92",
"198 c #B19E83",
"199 c #ACA39B",
"200 c #BAA286",
"201 c #B2A397",
"202 c #B0A79B",
"203 c #B3A89F",
"204 c #BEAB94",
"205 c #AEA9A2",
"206 c #B2ACA6",
"207 c #B7B1AD",
"208 c #B4B7B8",
"209 c #B9B6B4",
"210 c #BBB8B6",
"211 c #BCBABA",
"212 c #C4B387",
"213 c #D8BB82",
"214 c #C3B1A1",
"215 c #C8B6A2",
"216 c #C2BBB6",
"217 c #C1BEBB",
"218 c #C0BFC0",
"219 c #D9C485",
"220 c #C3C1BE",
"221 c #E7CB87",
"222 c #EECB90",
"223 c #F4CC88",
"224 c #FAD784",
"225 c #F7D893",
"226 c #E3D4AA",
"227 c #EDDBB5",
"228 c #FFE387",
"229 c #FEE796",
"230 c #FFE9AD",
"231 c #C5C4C3",
"232 c #C8C6C5",
"233 c #CBC9C7",
"234 c #CCCBCB",
"235 c #D4CCC7",
"236 c #D1CFCE",
"237 c #D8D2CD",
"238 c #D5D4D4",
"239 c #D8D6D5",
"240 c #DBDBDC",
"241 c #DFDFE0",
"242 c #E0DFE0",
"243 c #ECE3CF",
"244 c #E2E0DF",
"245 c #E3E2E3",
"246 c #E7E7E8",
"247 c #E8E7E6",
"248 c Gray92",
"249 c #F0EFEE",
"250 c #F1F0EF",
"251 c #F3F3F4",
"252 c #F7F7F8",
"253 c #F7F8F9",
"254 c #F8F7F7",
"255 c #FEFEFE",
"255255255255255255255255255255255255255255255255255255255255255255255255255255255255255255255255255255255255255255255255255255255255255255255255255255255255255255255255255255255255255255255255",
"255255255255255255255255255255255255255255255255255255255255255255255255255252244216194076080062097101194209240251255255255255255255255255255255255255255255255255255255255255255255255255255255",
"255255255255255255255255255255255255255255255255255255255255255255248235215147127135141164171168223225222141147107199231247255255255255255255255255255255255255255255255255255255255255255255255",
"255255255255255255255255255255255255255255255255255255255251231198153222183183181177177177160160181183181181177177172163130195220249255255255255255255255255255255255255255255255255255255255255",
"255255255255255255255255255255255255255255255255255248206107162181181183185183177160160177162160177177160177181177160159160172163110206246255255255255255255255255255255255255255255255255255255",
"255255255255255255255255255255255255255255255251205092166177181181177160160096166155129162038105168162150128089183160159160159159159166105205251255255255255255255255255255255255255255255255255",
"255255255255255255255255255255255255255255233086155177160181181183160138122027068079032053031034058033027053052098130133159177159159154159161100231255255255255255255255255255255255255255255255",
"255255255255255255255255255255255255251197123160160160172168182144121032040035018058057058029067021026021031022036032128128124172159154155154159150193251255255255255255255255255255255255255255",
"255255255255255255255255255255255247087140160160172160125055071031022038059008037057059057083140067057059057022061031155067028068124141159159159155155101244255255255255255255255255255255255255",
"255255255255255255255255255255240085155160159159085100079038019079034061057121128114119083083067067121140157133128113160059000010027068094159159160159166092238255255255255255255255255255255255",
"255255255255255255255255255238059159160160160160083021058026022057131172121093071098110150153144136144111104097079121159140061032038013016128160159159159159094236255255255255255255255255255255",
"255255255255255255255255240071159159160160163157155038038054128154089058093138177183181183181181177160160181182170096073089128155061023022154121032133159159160094239255255255255255255255255255",
"255255255255255255255247069159159159155144025036155133113133063058132177160160160159160159160159159160160160160160160172151074066133065119154036022122159159154172090244255255255255255255255255",
"255255255255255255254077154160159128032037052057061177121052121160177177160177160160160160160160160160160159160160160159160172151068113159067013029032094160159159159097251255255255255255255255",
"255255255255255255190128159159159159067022022113155061059160160177160160177160160160177160160160160160160159154159159159159159160172100062133058065055052140159159159154193255255255255255255255",
"255255255255255238082159159159159160160067059154057093177160177160160177160160177160160160160177160177160160160159159159159159160159172130068159113024058032140159159160121231255255255255255255",
"255255255255255068159155159166166160161159154052121160160160160177160160177160177177177177177177177177177157121063067160159160159160159160150055154058030047032155160160159090251255255255255255",
"255255255255218116159159160071029080058159054125177160160160177160177177177181181177181181177177177128058064037054140177160160160160159160160135056154053024029089127160159154199255255255255255",
"255255255255058159160129125026066055154066083177160160160177160177160177177181181177181177181160113058157121063177177177177160177160160160160160122063128036037002055160160177093248255255255255",
"255255255236115160160121049048032133128059177160160160177160177160177177159154128154177177160061010157155055177177177177177160160177160160160160177071121128018121159160160160156199255255255255",
"255255255087158159160150045020058155052157160177160177160177177177160083058037069069037128063004018129054157181181177181177177177160160177160160160160054154052128160159160160177089249255255255",
"255255248112160159155034094029128067095160160177160177177177177177140056173153098085023000019012052057141181177177177177177177177160177160160160160160121067154133154154155160160154217255255255",
"255255207118159160161047048038133052160160177177177177177177177177181181181181181166148068000015031064177177177177177177177177177177160177160160160160160057154065026034021125177177101255255255",
"255255076159160160068062032121067120177160177160177177177177181177181177160177160177181181123023068177177177177177177177177177177177177160177160160177160121083177067000036133160181089247255255",
"255249082160160160052069033128054159177177160177177177177177177177177177177177177177181181179022140181181177177177177177177177177177177177160177160160160160057159057036113062155181114231255255",
"255236116159160160154065128129064160177160177177177177177177181177181177181177177177177129053018113066177177177177177177177177177177177177177160177160160177064133059022029024126181175197255255",
"255203158160160139096141160093128177160177177177177177177181177181177181177181181177177093058045002054177177181177177177181177177177177177177177160177177160129083113055055058056181181087254255",
"253104160177160040014029157079155177177177177177177181177181181181181181181181181181183155073084089177181181181181181181181177177181177177177177160177177177157058128040126119135181181071244255",
"249090177177177062024031154059177177177177177177177177181181181181181181181181181181181181181055128181181181181181181181181181181177177181177177177177160177177032128064071037071160177064216255",
"239125160160160090022079133066177181177177177177181177181181181181181183181183181181181177177064128177183181181181183181181181181181181177177177177177160177177054113032058031022140181119188255",
"210138177177133018090152155093181181181177181177181181177181181183181181183181183183183183177059128177183181183181181181181181181181181181177181177177177160181081113059021037037160177131049255",
"206129183181170049077096129083181181181177181181177181181181181181181183183183183183183183183091067177183181181183181181183181181181181181177181177177177160181083083177138154155159177121042255",
"201121181179087077050062113067181181181181177181181177181181177181181183181183185183183181183096039181181181177181181181181183181181181181177181181177177177177064067159131163160160172121014255",
"206121181157048035035059128067181181181181181181181181181177181177181181183181183176143057052071021059121154140160183181183183181181177181181181181177177177177093067058007016137177177128017255",
"216119177160128128155177140065177181183181181181181181181181177181177181181154057058001037182109000000085085093055079055157183177181177181181181181181177177181093133059027019133181183134043255",
"239120177177181165107153157061160183181183183181183181183181181181181181183059036177095157157000054032056224185179167092054128177181177181181181181181181181181059167081027080160181183121187255",
"249096160181181047012026128058160183181183181183181183183181181181181181131038162183183183152021091038000090185184186177032000054128181181181181181181181181177057178120063030167177181095208255",
"255108156181181071030029160081157181183183183183183184183185184184182058007121181177183185132026137096000071178179148037002004000023167181183181181181181183166057157032035054177181181089242255",
"255214156183183165040068136109131183184183183183184224182144081055068057029037037083141131071079089056034085032040021013000000039132181183181181181183181181131093128022045139177183181099252255",
"255237118183183137048086091176063184184183183183183181164070008000016019027006017011031013037124123103157183164096092046070143184184184183181183181181183181063140064089054095181181179201255255",
"255249112181183183089015040183056179184183183183183183181183174047068093068026110169172179160176132034047136123049089162224185224184224183181183181181181167057157052049071172181183117238255255",
"255255100181181183089032096180126095183183183183183183184184184172183177181079028038071083083068144213162105120170159177177181181183183181183183181183183119021126155053056177181181081254255255",
"255255207175184184121021049096182054181184183183185183184184184181184224181132144144157106085133181181177160160160177177177181181181181181183181183181181055095033071032093181181177196255255255",
"255255248131186183183110045042137109095184183183185183185183184184184181181177177181183184185183177160160159159160160160160177177181181183181183181183113037110096030110177181181117241255255255",
"255255255101184183183123013024089183054164185184184184185183183183183181177160177181177177181177160160159160160177181181177181183183181181183181183157054164023048038132183181181090255255255255",
"255255255238142184185181039040105152164058183183183184184183183183183181181181181181181181183183181181181181181181179179172157153180179181181183181052143165033079029179183181156232255255255255",
"255255255255097184183185137042044048180124064183185183183183183183184184183184182165179167123092145090071069056071010026024003001001141181183183064093157038030035095181181181090254255255255255",
"255255255255238136185184184132030029035183089093183185183186179048084086035045041023000030027000024029035040054083111200121132152143183183183093064183058013024132181181181117234255255255255255",
"255255255255255102183184183178031027049111224090113183185186223040052056085089093143123132182179227243223180114150222204221228185185183183093059176081035027029155183181177099255255255255255255",
"255255255255255248091186228184180070044035107184106089184228229229184228184110091183136059086098049046047034036029013012044179183183181064089178062047085071179181181181112246255255255255255255",
"255255255255255255231150228228146009047027015090224146071180186186186183178057056183063041041019020033025033139093005027003143185167054095183095093068030123183181183117210255255255255255255255",
"255255255255255255255197176229184179137013024049092229226070096178185183183055037183140053008049021042045070029036093055131176093039143183183178181176037135183183156088255255255255255255255255",
"255255255255255255255253087183228229230174104050089149153184145069095176185179176183181181133121119114155183159160177154067053095178183183183183181183177176181177073252255255255255255255255255",
"255255255255255255255255251075183228186185085047048011143185185184149084090136179178183185181177160160159160157119058056123177183183181183181183181183183181177079249255255255255255255255255255",
"255255255255255255255255255250086178185185131048041109185185185185185186221212103073090091079054058057036037059095164183183181183183183181183181183183181177071248255255255255255255255255255255",
"255255255255255255255255255255251087176185185143095185184185183185185185185186186184180221219153173179176183186183183183183183183181181181183183181183175075250255255255255255255255255255255255",
"255255255255255255255255255255255253189142186185185183185183184185183185185186185185185185185185185185183183183185183183183183183181181183181183183117088252255255255255255255255255255255255255",
"255255255255255255255255255255255255255218083178186185184185185183185185185185185185185183183183181181181181181183181183183181183177181183183177082208255255255255255255255255255255255255255255",
"255255255255255255255255255255255255255255248101142183185186224185185185185183184183184183183183184183183183184183184181181181181183181181117087245255255255255255255255255255255255255255255255",
"255255255255255255255255255255255255255255255255234086143184228228185184185184183185184185184184184184183184184183184184183181177177117080232255255255255255255255255255255255255255255255255255",
"255255255255255255255255255255255255255255255255255255232099144176184183183183183183185184184224185183185184183181181183181156112072231253255255255255255255255255255255255255255255255255255255",
"255255255255255255255255255255255255255255255255255255255255241199085114154175181181181183184186185185185183183160115060071197241255255255255255255255255255255255255255255255255255255255255255",
"255255255255255255255255255255255255255255255255255255255255255255253246211191097071066119121109095093089071074191211245253255255255255255255255255255255255255255255255255255255255255255255255",
"255255255255255255255255255255255255255255255255255255255255255255255255255255252240208190187051078188206240254255255255255255255255255255255255255255255255255255255255255255255255255255255255"
};
