/* XPM */
static char *Pixmap[] = {
"16 16 256 3",
"000 c #7A9F7A",
"001 c #6F9791",
"002 c #6B9599",
"003 c #748786",
"004 c #74988D",
"005 c #7B9C80",
"006 c #7595A5",
"007 c #6EA39C",
"008 c #73A69B",
"009 c #7FB29D",
"010 c #72AAA0",
"011 c #986B03",
"012 c #956E1B",
"013 c #B17000",
"014 c #AD7C3B",
"015 c #B46B2A",
"016 c #A6634C",
"017 c #C27D00",
"018 c #C47900",
"019 c #C97800",
"020 c #C97901",
"021 c #C47326",
"022 c #F77A00",
"023 c #CC7343",
"024 c #B18300",
"025 c #8E9A49",
"026 c #8F9D59",
"027 c #85946E",
"028 c #809F76",
"029 c #9BB35E",
"030 c #9CBC7D",
"031 c #A08444",
"032 c #B0875F",
"033 c #BB8C5F",
"034 c #B0866E",
"035 c #B68F6D",
"036 c #ADA174",
"037 c #CF8000",
"038 c #C3831E",
"039 c #C19400",
"040 c #DD841E",
"041 c #CE8132",
"042 c #D58E2F",
"043 c #DF9821",
"044 c #D29A38",
"045 c #DFA800",
"046 c #C7A03D",
"047 c #E28617",
"048 c #E08219",
"049 c #ED980E",
"050 c #F18C09",
"051 c orange",
"052 c #F98C00",
"053 c #FA8E00",
"054 c #FF8A00",
"055 c #FF8F00",
"056 c #F19100",
"057 c #F59100",
"058 c #F49305",
"059 c #FA9601",
"060 c #FF9000",
"061 c #FF9400",
"062 c #FF9600",
"063 c #FF9900",
"064 c #FF9A00",
"065 c #FF9D00",
"066 c #E0A200",
"067 c #E7A214",
"068 c #E6BB15",
"069 c #F6AE00",
"070 c #FBA400",
"071 c #FDA200",
"072 c #FFA100",
"073 c #F9AF00",
"074 c #FFAE00",
"075 c #F1BB0D",
"076 c #FFBA00",
"077 c #FDBF03",
"078 c #FFBF00",
"079 c #F6B61C",
"080 c #F8BC19",
"081 c #EEAB22",
"082 c #D09748",
"083 c #DF9545",
"084 c #C39D74",
"085 c #CFBA56",
"086 c #D2AD4D",
"087 c #D8B244",
"088 c #D8B54C",
"089 c #D7BD57",
"090 c #D8B652",
"091 c #C2A86E",
"092 c #C6AA77",
"093 c #CBB765",
"094 c #C8BE64",
"095 c #CCBE65",
"096 c #CABD69",
"097 c #C9BC75",
"098 c #E1BF4D",
"099 c #DBC032",
"100 c #E8CF1A",
"101 c #FBC700",
"102 c #FFC500",
"103 c #FFCC00",
"104 c #F1DA09",
"105 c #F9D402",
"106 c #FDD000",
"107 c #FFD200",
"108 c #FFD500",
"109 c #FFDB00",
"110 c #FFDE00",
"111 c #F3E000",
"112 c #FFE100",
"113 c #FFE300",
"114 c #FFE700",
"115 c #D1C446",
"116 c #D7C64A",
"117 c #D7CD4D",
"118 c #DAC746",
"119 c #D8C947",
"120 c #C9C076",
"121 c #D0C46B",
"122 c #D4CE60",
"123 c #849680",
"124 c #9B9B9B",
"125 c #82A594",
"126 c #8CA99A",
"127 c #90AE92",
"128 c #B4B4B4",
"129 c #C3B187",
"130 c #C8BF92",
"131 c #C4B0A1",
"132 c #C8BCAE",
"133 c #C5BAB1",
"134 c #CCB9B9",
"135 c #C7C083",
"136 c #CDC5B7",
"137 c #C0C0C0",
"138 c #C5C5C5",
"139 c #C8C8C8",
"140 c #CBCBCB",
"141 c #D3CFCD",
"142 c #D5D4CA",
"143 c #D5D4CF",
"144 c #D8D8D8",
"145 c Gray86",
"146 c #DDDFE1",
"147 c #E1E0DF",
"148 c #E2E0DE",
"149 c Gray88",
"150 c #E2E2E2",
"151 c #E1E4E5",
"152 c #EAEAEB",
"153 c #F2F3F3",
"154 c #F3F3F3",
"155 c #F4F4F4",
"156 c Gray97",
"157 c #F8F8F8",
"158 c Gray98",
"159 c #FBFBFB",
"160 c Gray99",
"161 c #FDFDFD",
"162 c #FEFEFE",
"163 c #FEFEFF",
"164 c Gray100",
"165 c black",
"166 c black",
"167 c black",
"168 c black",
"169 c black",
"170 c black",
"171 c black",
"172 c black",
"173 c black",
"174 c black",
"175 c black",
"176 c black",
"177 c black",
"178 c black",
"179 c black",
"180 c black",
"181 c black",
"182 c black",
"183 c black",
"184 c black",
"185 c black",
"186 c black",
"187 c black",
"188 c black",
"189 c black",
"190 c black",
"191 c black",
"192 c black",
"193 c black",
"194 c black",
"195 c black",
"196 c black",
"197 c black",
"198 c black",
"199 c black",
"200 c black",
"201 c black",
"202 c black",
"203 c black",
"204 c black",
"205 c black",
"206 c black",
"207 c black",
"208 c black",
"209 c black",
"210 c black",
"211 c black",
"212 c black",
"213 c black",
"214 c black",
"215 c black",
"216 c black",
"217 c black",
"218 c black",
"219 c black",
"220 c black",
"221 c black",
"222 c black",
"223 c black",
"224 c black",
"225 c black",
"226 c black",
"227 c black",
"228 c black",
"229 c black",
"230 c black",
"231 c black",
"232 c black",
"233 c black",
"234 c black",
"235 c black",
"236 c black",
"237 c black",
"238 c black",
"239 c black",
"240 c black",
"241 c black",
"242 c black",
"243 c black",
"244 c black",
"245 c black",
"246 c black",
"247 c black",
"248 c black",
"249 c black",
"250 c black",
"251 c black",
"252 c black",
"253 c black",
"254 c black",
"255 c black",
"164164164164164164164160162164164164164164164164",
"164164164164160142135095096130147164164164164164",
"164164164152094104113112109107068129157164164164",
"164164154115111122117121116098102077091158164164",
"164164120114119007025027026125036069073131164164",
"164143100110118028024045066046008038074044153164",
"164097105108089001039080079092002013071049141164",
"164085106103099009029127030123012037065058132162",
"164093101102090004011014006003019059062050133160",
"164136075078088005017070083126032052060040139161",
"164163086076087000018072064082010023051033151164",
"164164148067081031020063061053034016021128156164",
"164164164134043056057061055054022015124150164164",
"164164164164144084042047048041035128149162164164",
"164164164164164159146138137140145155162164164164",
"164164164164164164164160155156162164164164164164"
};
