/* XPM */
static char *Pixmap[] = {
"32 32 256 3",
"000 c #351F12",
"001 c #372003",
"002 c #432C14",
"003 c #44382A",
"004 c #4F3627",
"005 c #553F2A",
"006 c #583F21",
"007 c #52433D",
"008 c #5E4D34",
"009 c #634622",
"010 c #604728",
"011 c #624825",
"012 c #624A2B",
"013 c #684A20",
"014 c #6A4D2A",
"015 c #614C31",
"016 c #6D5630",
"017 c #6F5C3C",
"018 c #73532A",
"019 c #735935",
"020 c #765C39",
"021 c #7B5E37",
"022 c #7E5C3A",
"023 c #7F6239",
"024 c #655644",
"025 c #746240",
"026 c #7B6340",
"027 c #7C684B",
"028 c #825D2B",
"029 c #86612D",
"030 c #8B642C",
"031 c #806434",
"032 c #85653A",
"033 c #886730",
"034 c #8D6936",
"035 c #946D33",
"036 c #94713E",
"037 c #9D7536",
"038 c #9D763E",
"039 c #A37637",
"040 c #A27A3B",
"041 c #AA7D3A",
"042 c #B17E3A",
"043 c #806641",
"044 c #846D44",
"045 c #876F49",
"046 c #896F43",
"047 c #8E7749",
"048 c #8E7A5D",
"049 c #957343",
"050 c #947549",
"051 c #987543",
"052 c #9E7A48",
"053 c #967D58",
"054 c #A27D42",
"055 c #AA7D41",
"056 c #AF803E",
"057 c #B3833D",
"058 c #BA863E",
"059 c #9D8043",
"060 c #9B834F",
"061 c #9F8555",
"062 c #978563",
"063 c #9E8768",
"064 c #9E8F6E",
"065 c #9E8F72",
"066 c #A48649",
"067 c #AA8342",
"068 c #AF884D",
"069 c #A38A54",
"070 c #B28642",
"071 c #B08B46",
"072 c #B38A48",
"073 c #BD8A41",
"074 c #BC8E48",
"075 c #B18B52",
"076 c #BC8F52",
"077 c #B5934B",
"078 c #BD9247",
"079 c #BB934B",
"080 c #B69750",
"081 c #BC9B53",
"082 c #BA9B5C",
"083 c #A08767",
"084 c #A28C65",
"085 c #A28868",
"086 c #B49C64",
"087 c #BB9B63",
"088 c #B39972",
"089 c #B99C7F",
"090 c #EBA63B",
"091 c #C28E42",
"092 c #C18E49",
"093 c #C49245",
"094 c #C2934B",
"095 c #C49B4B",
"096 c #CA9445",
"097 c #CB964A",
"098 c #CB9A4B",
"099 c #C39653",
"100 c #C29D54",
"101 c #C69C5E",
"102 c #CC9D52",
"103 c #D19741",
"104 c #D19B4B",
"105 c #DB9E44",
"106 c #DB9E4C",
"107 c #D19F5C",
"108 c #C49B69",
"109 c #C5A04C",
"110 c #CBA04E",
"111 c #C4A455",
"112 c #C7A75D",
"113 c #CAA452",
"114 c #CFA954",
"115 c #CCA95C",
"116 c #D1A04D",
"117 c #DBA24D",
"118 c #D3A452",
"119 c #D1A35C",
"120 c #D2AA53",
"121 c #D0AA59",
"122 c #DCA453",
"123 c #DBAB54",
"124 c #DBAA5A",
"125 c #D6B054",
"126 c #D5B05A",
"127 c #D6B95E",
"128 c #DFB256",
"129 c #DCB25B",
"130 c #DBBA59",
"131 c #C0A568",
"132 c #C6A966",
"133 c #C7AC6E",
"134 c #C8A566",
"135 c #CCA46A",
"136 c #CDAE6A",
"137 c #C0A070",
"138 c #CDA671",
"139 c #CDAA76",
"140 c #CDAE7F",
"141 c #D4A465",
"142 c #D3A962",
"143 c #D9A86D",
"144 c #D1B363",
"145 c #D1B468",
"146 c #DDB36B",
"147 c #DDBB63",
"148 c #D9BD76",
"149 c #E3A54E",
"150 c #EDAC4F",
"151 c #E1A652",
"152 c #E4AA53",
"153 c #E6AD5B",
"154 c #ECAD51",
"155 c #EDAF5C",
"156 c #E4B34E",
"157 c #E3B255",
"158 c #E2B15A",
"159 c #E6B95A",
"160 c #EAB255",
"161 c #EAB45A",
"162 c #EBBA5A",
"163 c #F2AF52",
"164 c #F4B04F",
"165 c #F3BA47",
"166 c #FAB54B",
"167 c #F4B454",
"168 c #F3B758",
"169 c #F1B957",
"170 c #F2BA5B",
"171 c #F9B555",
"172 c #F8B658",
"173 c #FAB854",
"174 c #FDBC5A",
"175 c #E1B662",
"176 c #E4B36A",
"177 c #E3BC66",
"178 c #EEB666",
"179 c #EABD62",
"180 c #E3B672",
"181 c #F3BE61",
"182 c #DFC161",
"183 c #EDC35D",
"184 c #FAC34D",
"185 c #F7C750",
"186 c #F2C15D",
"187 c #F4CF5D",
"188 c #FEC35D",
"189 c #FFCC5C",
"190 c #FCD45D",
"191 c #E5C36A",
"192 c #EBC461",
"193 c #EAC069",
"194 c #ECCA6C",
"195 c #E4C673",
"196 c #EDD575",
"197 c #F3C361",
"198 c #F1C768",
"199 c #F3CA64",
"200 c #F5CE6A",
"201 c #FCC663",
"202 c #FECB62",
"203 c #FECB6B",
"204 c #F7CF72",
"205 c #F2CD79",
"206 c #F7D366",
"207 c #F5D369",
"208 c #F7D86E",
"209 c #FED265",
"210 c #FFD469",
"211 c #FFDA6B",
"212 c #F5D373",
"213 c #F4D57D",
"214 c #FED671",
"215 c #FFDB71",
"216 c #FFE06D",
"217 c #FDE178",
"218 c #A6968B",
"219 c #BDA180",
"220 c #B7AEA7",
"221 c #BAB1A9",
"222 c #C9B08B",
"223 c #D2B386",
"224 c #D7B788",
"225 c #D4BD86",
"226 c #D5BC99",
"227 c #C3B7AA",
"228 c #C8B6A8",
"229 c #CBB9A9",
"230 c #D7BEA7",
"231 c #D7C093",
"232 c #DBC193",
"233 c #CDC1B1",
"234 c #D9C4A6",
"235 c #D4CABE",
"236 c #FBDF8A",
"237 c #FFEA84",
"238 c #D5CCC2",
"239 c #D2CFCE",
"240 c #D7D2CB",
"241 c #D8D2CD",
"242 c #DCD7D2",
"243 c #DFDEDD",
"244 c #E4DDD6",
"245 c #E3DFDB",
"246 c #E5E1DE",
"247 c #E4E2E0",
"248 c #E9E5E0",
"249 c #ECE8E5",
"250 c #EDECEB",
"251 c #F0EEED",
"252 c #F4F4F4",
"253 c #F8F7F8",
"254 c #FEFEFE",
"255 c black",
"254254254254254254254254254254254254247229137101139222227243254254254254254254254254254254254254",
"254254254254254254254254254252238232205186174181203203181176223238252254254254254254254254254254",
"254254254254254254254253233146201189159124116068119102118162171167141233253254254254254254254254",
"254254254254254254247135173170175072022012029030028006009038104122154150138246254254254254254254",
"254254254254254241117173102051010035041056072099074100074096058003049152171122240254254254254254",
"254254254254242105172124097034042094116158181197170178176119099073018093057163151241254254254254",
"254254254250103163055014096096104170174174171171171173171173155107092058010094171106243254254254",
"254254254108164172149042073152174174174174174174188172160149164171153076057019104171141253254254",
"254254242090122054097091163174174174188202202188160098037117174172171155092035012116167233254254",
"254254141167050034093152174174174174151104160152035098157189174174174173153073035117174124252254",
"254249090151026042104174174188188157114087043002013118202188188188174172174104096103117173235254",
"254230166072032058168174188188188202188188201071054189188188188188188174174167096037028172140254",
"253143173104094096174188188188188188188188188054037169188188188188188174174174104041018098175243",
"243161160020097151188188188202188202202202188075066188202189201188188188188188151056054102169220",
"229168152023093169188188202188202209202209202162104209202202202202189188188188160039018035168085",
"219188134048095170202202188202202202209211210183094209209202209202202189188188169091116149168036",
"089170075052091169202202202189188202209183109079031098122159202202202202188188169057031124174036",
"228169170087110160209209203202202202162070114114009047194129070157188202202202162110019123201063",
"245162186008078128210209210214198129033123209100066016126115001000159209202202128093021162186220",
"253180210060077120215210210193046004005017067071080080111045069191214209202209116056051188177250",
"254234190077061114199210210214204179129053099094142115107161202210210209209197040072068189231254",
"254249206192024100120215211211215214202170199198188174171188188202202209209098060044159184248254",
"254254148211059061115159216214210210209202202197181157161129120112179209157113046054209146254254",
"254254246190194019069115183216191069069069059066064084040088086111199183095067015186184244254254",
"254254254231217132007086136191236194147081113069065062040027069216159109071025125189224254254254",
"254254254253195213131024133225144206183095128021018049072041070113125209162077202128253254254254",
"254254254254251191237082024182208145145175192161106117117098114197210209209209156250254254254254",
"254254254254254251182187114216211216217196191148127130192206210209202209190128250254254254254254",
"254254254254254254253231190216216211216216216211211209210210209209189185224252254254254254254254",
"254254254254254254254254244148212211216211215215215215214210202165146242254254254254254254254254",
"254254254254254254254254254254248234146162197200207199179142226247254254254254254254254254254254",
"254254254254254254254254254254254254252239218083053218239252254254254254254254254254254254254254"
};
